<mxfile host="app.diagrams.net" modified="2023-09-20T10:39:12.446Z" agent="Mozilla/5.0 (X11; Linux x86_64; rv:109.0) Gecko/20100101 Firefox/117.0" version="21.7.5" etag="GgcskrmJaXHqsN0uK40N" type="github">
  <diagram name="Page-1" id="PBncibHwM4iCS5wro1W4">
    <mxGraphModel>
      <root>
        <mxCell id="0" />
        <mxCell id="1" parent="0" />
      </root>
    </mxGraphModel>
  </diagram>
</mxfile>
